<svg width="313" height="83" viewBox="0 0 313 83" fill="none" xmlns="http://www.w3.org/2000/svg">
<path d="M43.4207 66.3981C44.5343 66.0257 45.8597 65.5802 46.8054 65.1822C47.7511 64.7879 49.0327 64.1562 49.6023 63.8203C50.1719 63.4844 50.3106 63.5063 49.9893 63.1667C49.668 62.8272 50.2668 62.8637 49.0692 63.0426C47.8716 63.2215 44.6073 63.729 43.0337 63.9919C40.4376 63.4223 38.0351 62.86 35.4318 62.7578C33.3505 61.2863 31.3351 60.4173 29.2246 58.7925C28.0453 57.8834 26.8111 56.1162 25.7304 54.9368C25.7705 54.5936 25.7304 54.1956 25.9641 53.9218C27.0813 52.6438 28.2972 51.428 29.4473 50.1683C30.3163 50.7817 31.3277 51.428 31.985 52.2422C32.6422 53.0564 33.2702 54.3855 33.6317 55.1486C33.9932 55.9117 33.796 56.2221 34.0589 56.8026C34.3218 57.3795 34.6467 57.6351 34.9826 58.128C35.5559 57.8688 36.0707 57.5438 36.5746 57.1677C36.5746 56.6273 36.5636 56.0833 36.5417 55.5429C36.0233 54.8674 35.4938 54.2321 35.0776 53.4799C34.895 53.1513 34.811 52.7534 34.6796 52.3992C35.5997 52.9505 36.4176 53.6151 37.2683 54.2723C37.6408 54.5607 38.1118 54.5096 38.5609 54.506C38.7982 54.0641 39.0319 53.626 39.2729 53.1879C39.0027 52.8446 38.7325 52.5014 38.4623 52.1582C37.5714 51.7931 36.6914 51.417 35.848 50.9533C35.8042 50.9277 35.8188 50.8364 35.8662 50.8364C36.6549 50.8364 37.4399 50.8547 38.2213 50.9241C38.3674 50.9387 38.4879 51.0957 38.6376 51.0957C39.1268 51.0957 39.627 51.0373 40.12 51.0336C40.1492 50.5699 40.1857 50.1135 40.2112 49.6461C39.7256 49.5439 39.251 49.3175 38.7763 49.2408C38.3016 49.1642 38.4331 49.376 37.7978 49.2993C37.1624 49.2226 35.7531 49.1459 34.979 49.0546C34.7526 49.0291 34.5299 48.8064 34.3948 48.6603C33.723 47.9337 33.1461 47.1377 32.4596 46.4294C30.6231 46.2651 28.7865 46.119 26.9426 46.0424C25.5551 46.9406 24.1238 47.7621 22.6925 48.5909C22.3566 43.4646 22.5282 45.1916 22.415 41.241C23.8208 35.702 24.2662 33.2922 25.4237 29.4803C25.6172 29.6701 25.6354 30.0134 25.8326 30.1923C26.8732 31.1453 27.9832 32.0179 29.0932 32.9161C30.3894 32.781 32.142 32.6423 33.3213 32.4926C34.5043 32.3429 35.0958 32.1713 36.1693 32.0033C36.8813 32.1421 37.7868 32.2333 38.4769 32.3976C39.167 32.5619 39.5759 32.9234 40.2076 33.1315C40.6932 33.2922 41.2555 33.2776 41.7557 33.4236C41.9237 32.9964 42.1172 32.5984 42.2998 32.1786C41.9748 31.7915 41.606 31.4118 41.1058 31.2657C40.2076 31.0029 38.7726 30.7947 38.0168 30.6487C37.261 30.499 37.2683 30.4259 36.6586 30.2726C37.6882 30.0754 38.6814 29.8783 39.7037 29.7906C39.9483 29.7687 40.2149 29.9622 40.4486 29.9221C40.989 29.8345 41.4855 29.6336 42.0077 29.4766C41.9346 28.9253 41.858 28.3995 41.763 27.8482C41.2044 27.8555 40.6457 27.651 40.0761 27.7277C39.3934 27.819 38.3637 28.2717 37.7759 28.4068C37.1917 28.5419 37.0785 28.4944 36.5819 28.5857C37.5714 27.8774 38.5718 27.2494 39.6088 26.6286C39.8571 26.0846 40.0981 25.5369 40.35 24.9965C39.9155 24.5547 39.4883 24.1166 39.0538 23.6675C38.7142 24.0983 38.2578 24.4452 37.9438 24.8906C37.7685 25.1426 37.7759 25.4749 37.5203 25.683C36.2971 26.6834 35.0922 27.6547 33.8325 28.6259C33.5258 28.8632 33.0986 29.064 32.7627 29.2831C32.3829 27.1727 32.2771 25.4748 32.0251 23.4082C31.1342 22.5685 30.9188 22.3895 30.309 21.8893C31.0722 21.2759 35.2492 17.9058 37.5787 17.2194C38.769 17.7634 39.9082 18.417 41.0583 19.0377C41.7192 19.0487 42.2925 19.1144 43.0045 19.0304C44.8337 17.8875 48.1965 16.0583 49.7483 15.2294C51.3037 14.4043 51.0043 14.5211 52.202 13.8675C51.709 11.9725 51.2855 10.0447 50.5881 8.19348C47.7328 7.04333 44.8885 5.86396 41.9492 4.9402C40.6822 5.01687 39.4153 5.06435 38.1483 5.17754C37.5714 5.90779 36.0306 7.83931 35.4171 8.544C31.8791 10.9684 30.8896 11.2678 27.3807 13.4586C24.9417 14.0355 24.0618 14.0975 21.1736 14.4335C18.9683 13.7945 17.5004 12.6991 15.8099 11.3044C15.7077 10.7822 15.6018 10.2637 15.5397 9.73429C16.0728 9.05516 16.5986 8.37238 17.128 7.68229C17.6319 7.48147 18.3183 7.33544 18.8149 7.26607C19.3115 7.19669 19.6182 7.30256 20.0709 7.20032C20.5237 7.09809 20.9071 6.81694 21.3306 6.63073C21.327 6.18162 21.3233 5.73252 21.3197 5.28707C20.8961 5.18118 20.4726 5.0753 20.0527 4.96941C19.0559 5.26516 18.0591 5.53537 17.044 5.75444C17.7889 5.15929 18.5666 4.61525 19.3589 4.08947C19.5707 3.72069 19.7861 3.35192 19.9979 2.97949C19.7058 2.65453 19.4247 2.34417 19.1289 2.01191C18.7492 2.26384 18.2124 2.30401 17.8619 2.60341C17.296 3.08903 16.8542 3.75355 16.2846 4.24282C16.5183 3.36652 16.982 2.54863 17.2631 1.69424C17.3946 1.2926 17.1937 0.821594 17.2704 0.409002C16.8469 0.149763 16.4781 -0.00358749 15.9852 6.37659e-05C15.7844 0.376143 15.4704 0.671896 15.306 1.06258C15.1417 1.45326 15.3207 1.72345 15.1308 2.15065C13.8382 5.10451 12.0345 7.89408 10.8588 10.9356C11.4978 12.6224 12.1185 14.229 12.7246 15.9487C13.0496 16.8688 13.7214 17.7598 14.2216 18.6215C13.5169 19.5817 12.7648 20.5055 12.082 21.484C10.3367 28.0344 9.40197 32.9709 8.19705 40.7261C8.763 43.282 9.1902 45.8525 9.57358 48.4412C9.09892 48.4777 8.62061 48.496 8.14594 48.5471C6.76577 49.9529 5.61197 51.3549 4.66265 53.1075C4.56041 53.2974 4.70647 53.7611 4.69186 53.9692C4.63344 54.8236 4.22449 55.8095 3.73522 56.3864C3.24596 56.9633 2.69463 57.2773 2.21631 57.6497C1.738 58.0221 1.36192 58.0221 0.938375 58.3325C0.511178 58.6428 0.277495 59.0007 0 59.4315C0.277495 59.8368 0.544029 60.2384 0.814222 60.6474C1.36556 60.5962 1.80007 60.5926 2.22727 60.1727C2.65446 59.7528 3.12182 59.1504 3.57458 58.7706C4.02733 58.3873 4.43627 58.1463 4.88172 57.7994C4.48374 58.767 3.89954 59.6579 3.46869 60.5999C3.27152 61.0344 3.3555 61.5602 3.20214 62.0093C3.68046 62.2247 4.13687 62.4328 4.61153 62.641C4.98396 62.3452 5.4148 62.0677 5.53894 61.5821C5.80183 60.5451 6.05742 59.5556 6.48827 58.5771C6.60146 59.6688 6.65988 60.7533 6.65623 61.8523C6.94102 62.2503 7.14915 62.6702 7.32807 63.1229C7.90496 63.2069 8.36866 63.0609 8.89445 62.8089C8.87254 62.3379 9.10257 61.8267 9.02224 61.363C8.96382 61.0198 8.64617 60.6875 8.5841 60.3297C8.449 59.5191 8.25913 58.7159 8.20071 57.9053C8.09482 56.4411 8.18976 55.0281 8.32851 53.5785C9.69042 53.9437 11.056 54.3124 12.4252 54.6484C12.5494 54.7944 12.6187 54.9112 12.7538 55.0609C14.616 57.1495 16.6972 59.0591 18.6506 61.0673C23.9741 63.8933 29.3013 66.1754 35.0155 68.2383C36.2204 67.9426 39.1889 67.4204 40.0287 67.3182C40.8685 67.216 40.6457 67.2525 40.8356 67.1977C41.8178 66.9056 42.6065 66.6537 43.4207 66.3798V66.3981Z" fill="white"/>
<path d="M75.2432 44.8578C75.2432 50.7837 70.869 54.8293 64.6144 54.8293H52.1016V35.3098H63.7199C66.9658 35.3098 68.66 33.2395 68.66 30.7932C68.66 28.3468 67.3893 26.3715 64.4282 26.3715H52.1052V21.9023H64.4282C70.2118 21.9023 73.319 25.9954 73.319 30.7932C73.319 33.3344 71.9534 35.4047 70.073 36.909C73.1766 38.2746 75.2469 41.002 75.2469 44.8578H75.2432ZM70.6353 44.8578C70.6353 41.6118 68.4701 39.5415 64.6144 39.5415H56.5707V50.3602H64.6144C68.4227 50.3602 70.6353 48.1512 70.6353 44.8578Z" fill="white"/>
<path d="M105.39 54.8293H100.45L91.3726 28.6316L82.2956 54.8293H77.3555L89.16 21.9023H93.5342L105.386 54.8293H105.39Z" fill="white"/>
<path d="M121.662 43.1161H113.899V54.8293H109.383V38.6506H121.706C125.656 38.6506 127.869 35.7333 127.869 32.5348C127.869 29.3363 125.66 26.3715 121.706 26.3715H109.383V21.9023H121.706C128.384 21.9023 132.477 26.6526 132.477 32.5311C132.477 36.8579 130.221 40.5749 126.317 42.2216L133.419 54.8257H128.293L121.662 43.1125V43.1161Z" fill="white"/>
<path d="M161.688 45.4239L165.828 47.4941C163.053 52.1057 158.161 55.1618 152.235 55.1618C142.968 55.1618 136.242 47.684 136.242 38.4171C136.242 29.1502 142.968 21.625 152.235 21.625C158.161 21.625 163.053 24.6811 165.828 29.3401L161.688 31.3629C159.76 28.2119 156.419 26.1416 152.235 26.1416C145.414 26.1416 140.85 31.5966 140.85 38.4171C140.85 45.2376 145.414 50.6926 152.235 50.6926C156.419 50.6926 159.76 48.6224 161.688 45.4239Z" fill="white"/>
<path d="M192.074 26.3715H170.484V21.9023H192.074V26.3715ZM190.617 40.531H170.484V36.1568H190.617V40.531ZM192.359 50.3164V54.833H170.488V50.3164H192.359Z" fill="white"/>
<path d="M201.997 33.4406V31.8304V21.9062H197.48V31.8304V33.4406V50.784L201.997 46.3149V33.4406Z" fill="white"/>
<path d="M204.916 50.3125L200.352 54.8291H217.286V50.3125H204.916Z" fill="white"/>
<path d="M251.105 38.4132C251.105 47.6801 244.427 55.1579 235.113 55.1579C225.799 55.1579 219.168 47.6326 219.168 38.3658C219.168 29.0989 225.846 21.6211 235.113 21.6211C244.38 21.6211 251.105 29.0989 251.105 38.4132ZM246.498 38.4132C246.498 31.5927 241.934 26.0902 235.117 26.0902C228.3 26.0902 223.78 31.5452 223.78 38.3658C223.78 45.1863 228.344 50.6887 235.117 50.6887C241.89 50.6887 246.498 45.1863 246.498 38.4132ZM237.983 38.4132C237.983 39.965 236.712 41.2356 235.113 41.2356C233.514 41.2356 232.291 39.965 232.291 38.4132C232.291 36.8614 233.561 35.5433 235.113 35.5433C236.665 35.5433 237.983 36.814 237.983 38.4132Z" fill="white"/>
<path d="M280.974 21.9062V55.1618H280.55L260.512 33.1958V54.8331H256.043V21.625H256.419L276.457 43.7772V21.9062H280.974Z" fill="white"/>
<path d="M312.999 54.8293H308.059L298.982 28.6316L289.905 54.8293H284.965L296.769 21.9023H301.144L312.996 54.8293H312.999Z" fill="white"/>
<path d="M104.103 80.4589L104.764 80.897C103.826 82.0691 102.391 82.8322 100.751 82.8322C97.8192 82.8322 95.5664 80.4442 95.5664 77.5123C95.5664 74.5803 97.8229 72.207 100.751 72.207C102.391 72.207 103.829 72.9555 104.764 74.1422L104.103 74.5657C103.311 73.5981 102.124 72.9847 100.748 72.9847C98.2428 72.9847 96.3514 75.0221 96.3514 77.5123C96.3514 80.0024 98.2428 82.0399 100.748 82.0399C102.124 82.0399 103.311 81.4264 104.103 80.4589Z" fill="white"/>
<path d="M112.097 81.8654V82.6431H106.441V72.3867H111.966V73.179H107.219V76.9435H111.63V77.7212H107.219V81.869H112.097V81.8654Z" fill="white"/>
<path d="M121.792 72.3867V82.6431H121.014L114.774 73.7194V82.6431H113.996V72.3867H114.774L121.014 81.3104V72.3867H121.792Z" fill="white"/>
<path d="M130.085 73.179H127.274V82.6431H126.496V73.179H123.699V72.3867H130.085V73.179Z" fill="white"/>
<path d="M138.126 82.6431L135.446 78.32C135.256 78.3346 135.052 78.3492 134.847 78.3492H132.766V82.6431H131.988V72.3867H134.844C137.085 72.3867 138.433 73.4857 138.433 75.3771C138.433 76.812 137.64 77.7942 136.264 78.1739L139.032 82.6431H138.122H138.126ZM134.844 77.5752C136.644 77.5752 137.655 76.8266 137.655 75.3771C137.655 73.9275 136.644 73.179 134.844 73.179H132.762V77.5752H134.844Z" fill="white"/>
<path d="M146.49 79.7732H141.816L140.746 82.6431H139.91L143.733 72.3867H144.569L148.392 82.6431H147.556L146.486 79.7732H146.49ZM146.198 78.9809L144.16 73.515L142.108 78.9809H146.194H146.198Z" fill="white"/>
<path d="M155.557 81.8654V82.6431H150.004V72.3867H150.796V81.8654H155.557Z" fill="white"/>
<path d="M168.153 75.567C168.153 77.4583 166.864 78.7472 164.622 78.7472H162.351V82.6431H161.559V72.3867H164.622C166.864 72.3867 168.153 73.6756 168.153 75.567ZM167.36 75.567C167.36 74.1174 166.422 73.179 164.622 73.179H162.351V77.9549H164.622C166.426 77.9549 167.36 77.0165 167.36 75.567Z" fill="white"/>
<path d="M174.876 79.7732H170.203L169.133 82.6431H168.297L172.12 72.3867H172.956L176.779 82.6431H175.943L174.873 79.7732H174.876ZM174.584 78.9809L172.547 73.515L170.495 78.9809H174.581H174.584Z" fill="white"/>
<path d="M184.528 82.6431L181.848 78.32C181.658 78.3346 181.454 78.3492 181.25 78.3492H179.168V82.6431H178.391V72.3867H181.25C183.491 72.3867 184.839 73.4857 184.839 75.3771C184.839 76.812 184.046 77.7942 182.67 78.1739L185.438 82.6431H184.528ZM181.246 77.5752C183.046 77.5752 184.057 76.8266 184.057 75.3771C184.057 73.9275 183.046 73.179 181.246 73.179H179.165V77.5752H181.246Z" fill="white"/>
<path d="M192.655 82.6431L187.835 77.6336V82.6431H187.043V72.3867H187.835V77.3086L192.29 72.3867H193.33L188.759 77.4547L193.754 82.6394H192.655V82.6431Z" fill="white"/>
<path d="M207.008 72.3867V82.6431H206.216V77.8673H200.253V82.6431H199.461V72.3867H200.253V77.0749H206.216V72.3867H207.008Z" fill="white"/>
<path d="M219.269 77.5162C219.269 80.4482 217.013 82.8361 214.084 82.8361C211.156 82.8361 208.914 80.4482 208.914 77.5162C208.914 74.5842 211.156 72.2109 214.084 72.2109C217.013 72.2109 219.269 74.5842 219.269 77.5162ZM218.491 77.5162C218.491 75.026 216.585 72.9887 214.081 72.9887C211.576 72.9887 209.684 75.026 209.684 77.5162C209.684 80.0064 211.59 82.0438 214.081 82.0438C216.571 82.0438 218.491 80.021 218.491 77.5162Z" fill="white"/>
<path d="M228.438 72.3867V78.8202C228.438 81.2374 227.032 82.8329 224.805 82.8329C222.578 82.8329 221.172 81.2374 221.172 78.8202V72.3867H221.95V78.8202C221.95 80.7992 223.005 82.0443 224.805 82.0443C226.605 82.0443 227.646 80.7992 227.646 78.8202V72.3867H228.438Z" fill="white"/>
<path d="M236.965 79.8898C236.965 81.2517 235.997 82.8363 233.624 82.8363C231.776 82.8363 230.531 81.6643 230.195 80.4922L230.944 80.2586C231.177 81.0947 232.087 82.044 233.624 82.044C235.161 82.044 236.172 81.2079 236.172 79.8898C236.172 78.6593 235.205 78.2942 233.726 77.8962C232.364 77.5311 230.604 77.0162 230.604 75.0701C230.604 73.4015 231.966 72.2148 233.547 72.2148C234.982 72.2148 236.067 72.978 236.508 74.3545L235.745 74.5443C235.409 73.5037 234.646 72.9926 233.547 72.9926C232.39 72.9926 231.393 73.8287 231.393 75.0738C231.393 76.3189 232.375 76.7278 233.927 77.1404C235.318 77.5201 236.961 78.0057 236.961 79.8934L236.965 79.8898Z" fill="white"/>
<path d="M244.378 81.8654V82.6431H238.723V72.3867H244.247V73.179H239.5V76.9435H243.911V77.7212H239.5V81.869H244.378V81.8654Z" fill="white"/>
</svg>
