<svg width="307" height="108" viewBox="0 0 307 108" fill="none" xmlns="http://www.w3.org/2000/svg">
<path d="M11.4102 94.5566C12.4527 94.5566 13.3701 94.752 14.1623 95.1427C14.9546 95.5334 15.5718 96.082 16.0138 96.7886C16.4558 97.4868 16.6768 98.3015 16.6768 99.2325C16.6768 100.155 16.4558 100.97 16.0138 101.676C15.5718 102.375 14.9546 102.923 14.1623 103.322C13.3701 103.713 12.4527 103.908 11.4102 103.908H7.39453V94.5566H11.4102ZM8.57045 103.597L7.81987 102.873H11.4602C12.2608 102.873 12.9614 102.72 13.5619 102.412C14.1623 102.105 14.6294 101.676 14.963 101.128C15.3049 100.579 15.4759 99.9474 15.4759 99.2325C15.4759 98.501 15.3049 97.8651 14.963 97.3247C14.6294 96.7761 14.1623 96.348 13.5619 96.0404C12.9614 95.7329 12.2608 95.5791 11.4602 95.5791H7.81987L8.57045 94.8683V103.597ZM43.4603 98.7337V99.7313H37.0678V98.7337H43.4603ZM37.8059 99.2325L37.0928 103.622L36.4673 102.886H43.7981V103.908H35.8919L36.6675 99.2325L35.8919 94.5566H43.7355V95.5791H36.4673L37.0928 94.8434L37.8059 99.2325ZM67.8232 103.447H67.2102L71.476 94.5566H72.752L68.1359 103.908H66.8599L62.2438 94.5566H63.5198L67.8232 103.447ZM99.1516 98.7337V99.7313H92.7591V98.7337H99.1516ZM93.4971 99.2325L92.7841 103.622L92.1586 102.886H99.4893V103.908H91.5831L92.3587 99.2325L91.5831 94.5566H99.4268V95.5791H92.1586L92.7841 94.8434L93.4971 99.2325ZM120.38 94.5566V103.385L119.855 102.873H126.948V103.908H119.204V94.5566H120.38ZM150.203 104.07C149.161 104.07 148.239 103.867 147.438 103.459C146.646 103.052 146.029 102.487 145.587 101.764C145.145 101.032 144.924 100.188 144.924 99.2325C144.924 98.2682 145.145 97.4245 145.587 96.7013C146.029 95.9781 146.646 95.4128 147.438 95.0055C148.239 94.5982 149.161 94.3945 150.203 94.3945C151.246 94.3945 152.163 94.5982 152.955 95.0055C153.747 95.4128 154.365 95.9781 154.807 96.7013C155.249 97.4245 155.47 98.2682 155.47 99.2325C155.47 100.188 155.249 101.032 154.807 101.764C154.365 102.487 153.747 103.052 152.955 103.459C152.163 103.867 151.246 104.07 150.203 104.07ZM150.203 103.011C151.029 103.011 151.746 102.857 152.355 102.549C152.964 102.233 153.435 101.793 153.768 101.228C154.102 100.662 154.269 99.9973 154.269 99.2325C154.269 98.4594 154.102 97.7903 153.768 97.225C153.435 96.6597 152.964 96.2233 152.355 95.9157C151.746 95.6082 151.029 95.4544 150.203 95.4544C149.377 95.4544 148.66 95.6082 148.051 95.9157C147.443 96.2233 146.967 96.6597 146.625 97.225C146.292 97.7903 146.125 98.4594 146.125 99.2325C146.125 99.9973 146.292 100.662 146.625 101.228C146.967 101.793 147.443 102.233 148.051 102.549C148.66 102.857 149.377 103.011 150.203 103.011ZM179.907 94.5566C180.566 94.5566 181.137 94.673 181.621 94.9058C182.104 95.1385 182.48 95.4669 182.747 95.8908C183.014 96.3064 183.147 96.7886 183.147 97.3372C183.147 97.8859 183.014 98.3721 182.747 98.7961C182.48 99.2117 182.104 99.5401 181.621 99.7811C181.137 100.014 180.566 100.13 179.907 100.13H175.629V99.1078H179.882C180.516 99.1078 181.016 98.9499 181.383 98.634C181.758 98.3098 181.946 97.8775 181.946 97.3372C181.946 96.7969 181.758 96.3688 181.383 96.0529C181.016 95.737 180.516 95.5791 179.882 95.5791H175.754L176.279 95.0055V103.908H175.103V94.5566H179.907ZM214.556 94.5566V103.908H213.43V94.8309L213.893 94.8434L209.152 103.908H207.901L203.16 94.8559L203.623 94.8434V103.908H202.497V94.5566H204.273L208.902 103.509H208.164L212.78 94.5566H214.556ZM241.959 98.7337V99.7313H235.566V98.7337H241.959ZM236.304 99.2325L235.591 103.622L234.966 102.886H242.296V103.908H234.39L235.166 99.2325L234.39 94.5566H242.234V95.5791H234.966L235.591 94.8434L236.304 99.2325ZM270.668 103.322L270.093 103.36V94.5566H271.231V103.908H269.718L262.575 95.1053L263.15 95.0679V103.908H262.012V94.5566H263.538L270.668 103.322ZM294.462 95.1177H295.638V103.908H294.462V95.1177ZM290.434 94.5566H299.666V95.5916H290.434V94.5566Z" fill="black"/>
<path d="M10.6341 16.9727V67.195L8.89666 65.4632H48.4416V68.9268H6.74219V16.9727H10.6341Z" fill="black"/>
<path fill-rule="evenodd" clip-rule="evenodd" d="M111.372 68.9268H115.89L89.48 16.9727L87.5688 21.3022L102.716 51.6088H72.3228L80.9664 34.4639L76.9702 33.9443L59.0742 68.9268H63.5917L70.5766 55.0724H104.448L111.372 68.9268Z" fill="black"/>
<path d="M127.914 68.9268V65.4632L171.142 17.9425L172.185 20.4363H128.262V16.9727H173.853V20.4363L130.694 67.957L129.582 65.4632H174.061V68.9268H127.914Z" fill="black"/>
<path fill-rule="evenodd" clip-rule="evenodd" d="M238.728 68.9268H243.245L216.835 16.9727L214.924 21.3022L230.072 51.6088H199.678L208.322 34.4639L204.326 33.9443L186.43 68.9268H190.947L197.932 55.0724H231.803L238.728 68.9268Z" fill="black"/>
<path d="M262.429 42.6034H285.92C289.766 42.6034 292.846 41.6104 295.163 39.6247C297.48 37.5926 298.638 34.891 298.638 31.5198C298.638 28.1486 297.48 25.47 295.163 23.4842C292.846 21.4522 289.766 20.4363 285.92 20.4363H261.873L263.611 18.7045V68.9268H259.719V16.9727H285.572C288.955 16.9727 291.897 17.5961 294.399 18.843C296.947 20.0437 298.939 21.7524 300.376 23.9691C301.812 26.1397 302.53 28.6566 302.53 31.5198C302.53 34.3831 301.812 36.9231 300.376 39.1398C298.939 41.3104 296.947 43.019 294.399 44.2659C291.897 45.4667 288.955 46.067 285.572 46.067H262.429V42.6034ZM275.217 44.6123H280.499L303.364 68.9268H298.082L275.217 44.6123Z" fill="black"/>
</svg>
