<svg width="126" height="44" viewBox="0 0 126 44" fill="none" xmlns="http://www.w3.org/2000/svg">
<path d="M4.68996 38.8752C5.11855 38.8752 5.4957 38.9555 5.82142 39.1162C6.14714 39.2768 6.40087 39.5023 6.58259 39.7928C6.7643 40.0799 6.85516 40.4148 6.85516 40.7976C6.85516 41.1769 6.7643 41.5118 6.58259 41.8023C6.40087 42.0894 6.14714 42.3149 5.82142 42.479C5.4957 42.6396 5.11855 42.7199 4.68996 42.7199H3.03906V38.8752H4.68996ZM3.5225 42.5917L3.21392 42.2944H4.71054C5.03969 42.2944 5.32769 42.2312 5.57456 42.1047C5.82142 41.9783 6.01343 41.8023 6.15057 41.5767C6.29115 41.3512 6.36144 41.0915 6.36144 40.7976C6.36144 40.4968 6.29115 40.2354 6.15057 40.0133C6.01343 39.7877 5.82142 39.6117 5.57456 39.4853C5.32769 39.3588 5.03969 39.2956 4.71054 39.2956H3.21392L3.5225 39.0034V42.5917ZM17.8663 40.5925V41.0026H15.2382V40.5925H17.8663ZM15.5417 40.7976L15.2485 42.602L14.9914 42.2995H18.0052V42.7199H14.7548L15.0737 40.7976L14.7548 38.8752H17.9795V39.2956H14.9914L15.2485 38.9931L15.5417 40.7976ZM27.8823 42.5302H27.6303L29.384 38.8752H29.9086L28.0109 42.7199H27.4863L25.5885 38.8752H26.1131L27.8823 42.5302ZM40.7619 40.5925V41.0026H38.1339V40.5925H40.7619ZM38.4373 40.7976L38.1441 42.602L37.887 42.2995H40.9008V42.7199H37.6504L37.9693 40.7976L37.6504 38.8752H40.8751V39.2956H37.887L38.1441 38.9931L38.4373 40.7976ZM49.4894 38.8752V42.5046L49.2734 42.2944H52.1895V42.7199H49.006V38.8752H49.4894ZM61.75 42.7865C61.3215 42.7865 60.9426 42.7028 60.6134 42.5354C60.2877 42.3679 60.034 42.1355 59.8523 41.8382C59.6706 41.5374 59.5797 41.1906 59.5797 40.7976C59.5797 40.4011 59.6706 40.0543 59.8523 39.7569C60.034 39.4596 60.2877 39.2272 60.6134 39.0598C60.9426 38.8923 61.3215 38.8086 61.75 38.8086C62.1786 38.8086 62.5558 38.8923 62.8815 39.0598C63.2072 39.2272 63.4609 39.4596 63.6427 39.7569C63.8244 40.0543 63.9152 40.4011 63.9152 40.7976C63.9152 41.1906 63.8244 41.5374 63.6427 41.8382C63.4609 42.1355 63.2072 42.3679 62.8815 42.5354C62.5558 42.7028 62.1786 42.7865 61.75 42.7865ZM61.75 42.3508C62.0895 42.3508 62.3843 42.2876 62.6346 42.1611C62.8849 42.0313 63.0787 41.8501 63.2158 41.6178C63.3529 41.3854 63.4215 41.112 63.4215 40.7976C63.4215 40.4797 63.3529 40.2046 63.2158 39.9722C63.0787 39.7399 62.8849 39.5604 62.6346 39.434C62.3843 39.3075 62.0895 39.2443 61.75 39.2443C61.4106 39.2443 61.1157 39.3075 60.8654 39.434C60.6152 39.5604 60.4197 39.7399 60.2791 39.9722C60.142 40.2046 60.0734 40.4797 60.0734 40.7976C60.0734 41.112 60.142 41.3854 60.2791 41.6178C60.4197 41.8501 60.6152 42.0313 60.8654 42.1611C61.1157 42.2876 61.4106 42.3508 61.75 42.3508ZM73.9618 38.8752C74.2327 38.8752 74.4675 38.9231 74.6664 39.0188C74.8652 39.1145 75.0195 39.2494 75.1292 39.4237C75.239 39.5946 75.2938 39.7928 75.2938 40.0184C75.2938 40.2439 75.239 40.4439 75.1292 40.6181C75.0195 40.789 74.8652 40.924 74.6664 41.0231C74.4675 41.1188 74.2327 41.1667 73.9618 41.1667H72.2029V40.7463H73.9515C74.2121 40.7463 74.4178 40.6814 74.5687 40.5515C74.723 40.4182 74.8001 40.2405 74.8001 40.0184C74.8001 39.7962 74.723 39.6202 74.5687 39.4904C74.4178 39.3605 74.2121 39.2956 73.9515 39.2956H72.2543L72.4703 39.0598V42.7199H71.9869V38.8752H73.9618ZM88.2067 38.8752V42.7199H87.7439V38.988L87.9342 38.9931L85.985 42.7199H85.4707L83.5215 38.9983L83.7118 38.9931V42.7199H83.2489V38.8752H83.9792L85.8821 42.5559H85.5787L87.4764 38.8752H88.2067ZM99.4723 40.5925V41.0026H96.8443V40.5925H99.4723ZM97.1477 40.7976L96.8545 42.602L96.5974 42.2995H99.6112V42.7199H96.3608L96.6797 40.7976L96.3608 38.8752H99.5855V39.2956H96.5974L96.8545 38.9931L97.1477 40.7976ZM111.275 42.479L111.039 42.4943V38.8752H111.507V42.7199H110.884L107.948 39.1008L108.184 39.0854V42.7199H107.716V38.8752H108.344L111.275 42.479ZM121.057 39.1059H121.541V42.7199H121.057V39.1059ZM119.401 38.8752H123.197V39.3007H119.401V38.8752Z" fill="white"/>
<path d="M4.37348 6.97656V27.6238L3.65918 26.9118H19.9167V28.3358H2.77344V6.97656H4.37348Z" fill="white"/>
<path fill-rule="evenodd" clip-rule="evenodd" d="M45.7857 28.3358H47.6429L36.7855 6.97656L35.9998 8.7565L42.2272 21.216H29.7319L33.2854 14.1675L31.6425 13.9539L24.2852 28.3358H26.1423L29.014 22.64H42.9389L45.7857 28.3358Z" fill="white"/>
<path d="M52.5859 28.3358V26.9118L70.3578 7.37527L70.7864 8.40051H52.7288V6.97656H71.4721V8.40051L53.7288 27.9371L53.2717 26.9118H71.5579V28.3358H52.5859Z" fill="white"/>
<path fill-rule="evenodd" clip-rule="evenodd" d="M98.1451 28.3358H100.002L89.1449 6.97656L88.3591 8.7565L94.5866 21.216H82.0912L85.6448 14.1675L84.0019 13.9539L76.6445 28.3358H78.5017L81.3734 22.64H95.2983L98.1451 28.3358Z" fill="white"/>
<path d="M107.888 17.5138H117.545C119.126 17.5138 120.393 17.1055 121.345 16.2892C122.298 15.4538 122.774 14.3431 122.774 12.9571C122.774 11.5712 122.298 10.47 121.345 9.65359C120.393 8.8182 119.126 8.40051 117.545 8.40051H107.659L108.373 7.68854V28.3358H106.773V6.97656H117.402C118.793 6.97656 120.002 7.23287 121.031 7.74549C122.079 8.23913 122.898 8.94161 123.488 9.85294C124.079 10.7453 124.374 11.78 124.374 12.9571C124.374 14.1343 124.079 15.1785 123.488 16.0898C122.898 16.9822 122.079 17.6847 121.031 18.1973C120.002 18.691 118.793 18.9377 117.402 18.9377H107.888V17.5138ZM113.145 18.3397H115.317L124.717 28.3358H122.545L113.145 18.3397Z" fill="white"/>
</svg>
